<svg width="771" height="491" viewBox="0 0 771 491" fill="none" xmlns="http://www.w3.org/2000/svg">
<rect width="771" height="491" fill="#F5F5F5"/>
<g clip-path="url(#clip0_0_1)">
<path d="M310.068 99.4633C279.114 94.5235 243.864 91.8876 207.154 91.8876C173.558 91.8876 141.19 94.0919 112.222 98.2483C112.229 97.8034 112.235 97.3586 112.255 96.9137C113.023 71.0922 123.861 46.5953 142.452 28.659C161.043 10.7226 185.912 0.769661 211.745 0.927477C237.577 1.08529 262.323 11.3413 280.694 29.5035C299.064 47.6657 309.602 72.2931 310.054 98.1221C310.061 98.5736 310.068 99.0185 310.068 99.4633Z" fill="#1A1825"/>
<g opacity="0.1">
<path d="M224.119 0.890552C210.379 -0.965245 196.403 0.0865666 183.097 3.97781C169.79 7.86906 157.449 14.5129 146.874 23.4788C136.3 32.4446 127.727 43.5324 121.711 56.0235C115.696 68.5146 112.372 82.1303 111.956 95.9881C111.936 96.433 111.929 96.8778 111.923 97.3227C120.529 96.0879 129.441 95.0297 138.59 94.1461C139.71 71.0596 148.876 49.0934 164.499 32.0591C180.121 15.0247 201.215 3.99741 224.119 0.890552Z" fill="white"/>
</g>
<path d="M353.344 107.311C339.096 103.449 324.643 100.381 310.054 98.1221C286.142 94.4167 262.036 92.1 237.856 91.1837C227.783 90.7721 217.525 90.5596 207.154 90.5596C198.935 90.5596 190.781 90.6924 182.741 90.958C159.154 91.6549 135.624 93.6431 112.255 96.9137C94.9562 99.2957 77.8252 102.768 60.9644 107.311C21.6515 118.18 3.05176e-05 132.747 3.05176e-05 148.324C3.05176e-05 163.9 21.6516 178.467 60.9644 189.336C88.6116 196.985 122.699 202.197 159.841 204.587C175.172 205.583 191.02 206.088 207.154 206.088C223.342 206.088 239.243 205.577 254.621 204.581C288.423 202.396 319.695 197.875 345.868 191.302C346.007 191.262 346.14 191.229 346.28 191.195C348.046 190.757 349.785 190.299 351.505 189.841C352.122 189.668 352.733 189.502 353.344 189.336C353.379 189.322 353.414 189.311 353.45 189.303C354.035 189.144 354.612 188.978 355.19 188.819C356.345 188.487 357.487 188.161 358.609 187.823C358.662 187.809 358.709 187.796 358.756 187.783C359.731 187.491 360.688 187.198 361.637 186.906C362.414 186.661 363.184 186.422 363.948 186.176C364.506 185.997 365.057 185.817 365.601 185.638C365.999 185.505 366.391 185.379 366.776 185.246C367.301 185.074 367.825 184.895 368.343 184.715C368.562 184.642 368.781 184.569 368.994 184.49C369.492 184.324 369.976 184.151 370.461 183.978C370.986 183.792 371.51 183.6 372.028 183.414C372.46 183.261 372.891 183.102 373.316 182.943C373.674 182.803 374.027 182.67 374.385 182.537C375.361 182.172 376.317 181.794 377.26 181.422C377.731 181.229 378.203 181.044 378.667 180.851C379.126 180.665 379.59 180.473 380.042 180.28C380.785 179.968 381.516 179.656 382.233 179.344C382.578 179.184 382.93 179.032 383.269 178.886C383.528 178.766 383.78 178.653 384.039 178.534C384.225 178.454 384.411 178.368 384.59 178.282C385.261 177.976 385.925 177.664 386.575 177.352C389.072 176.157 391.402 174.935 393.567 173.687C407.145 165.912 414.309 157.287 414.309 148.324C414.309 132.747 392.657 118.18 353.344 107.311ZM352.986 188.062C325.306 195.717 291.125 200.929 253.884 203.299C238.739 204.262 223.083 204.76 207.154 204.76C191.279 204.76 175.676 204.269 160.578 203.306C123.277 200.942 89.0431 195.73 61.3229 188.062C22.6342 177.359 1.32794 163.25 1.32794 148.324C1.3301 147.005 1.49518 145.691 1.81943 144.413C5.20534 130.948 26.0337 118.346 61.3229 108.586C78.0563 104.079 95.056 100.626 112.222 98.2482C135.731 94.9591 159.404 92.9642 183.132 92.2726C191.047 92.0137 199.054 91.8853 207.154 91.8875C217.386 91.8875 227.505 92.0934 237.451 92.4917C261.771 93.3998 286.018 95.7276 310.068 99.4633C324.531 101.712 338.859 104.757 352.986 108.586C388.269 118.346 409.09 130.941 412.483 144.4C412.812 145.682 412.98 147 412.981 148.324C412.981 163.25 391.675 177.359 352.986 188.062Z" fill="#3F3D56"/>
<path d="M413.93 148.928C413.93 157.799 406.62 166.191 393.567 173.687C391.396 174.935 389.059 176.157 386.575 177.352C385.925 177.664 385.261 177.976 384.59 178.282C384.411 178.368 384.225 178.454 384.039 178.534C383.78 178.653 383.528 178.766 383.269 178.886C382.93 179.032 382.578 179.185 382.233 179.344C381.516 179.656 380.786 179.968 380.042 180.28C379.59 180.473 379.126 180.665 378.667 180.851C378.203 181.044 377.731 181.229 377.26 181.422C376.317 181.794 375.361 182.172 374.385 182.537C374.027 182.67 373.674 182.803 373.316 182.942C372.891 183.102 372.46 183.261 372.028 183.414C371.51 183.6 370.986 183.792 370.461 183.978C369.976 184.151 369.492 184.324 368.994 184.489C368.781 184.569 368.562 184.642 368.343 184.715C367.825 184.895 367.301 185.074 366.776 185.246C366.391 185.379 365.999 185.505 365.601 185.638C365.056 185.817 364.505 185.997 363.948 186.176C363.184 186.422 362.414 186.661 361.637 186.906C360.688 187.198 359.731 187.491 358.756 187.783C358.709 187.796 358.662 187.809 358.609 187.823C357.487 188.161 356.345 188.487 355.19 188.819C354.612 188.978 354.035 189.144 353.45 189.303C353.414 189.311 353.379 189.322 353.344 189.336C352.733 189.502 352.122 189.668 351.505 189.841C349.792 190.292 348.046 190.751 346.28 191.195C346.14 191.229 346.007 191.262 345.868 191.302C320.405 197.662 289.166 202.297 254.594 204.534C239.449 205.51 223.66 206.028 207.44 206.028C191.074 206.028 175.152 205.504 159.887 204.508C68.7658 198.565 0.949554 175.938 0.949554 148.928C0.956729 147.285 1.20724 145.651 1.69294 144.081C1.73282 144.194 1.77269 144.3 1.81938 144.413C11.2937 169.298 78.5329 189.409 165.777 194.316C179.142 195.073 192.986 195.465 207.154 195.465C221.383 195.465 235.279 195.066 248.698 194.309C335.869 189.383 403.042 169.265 412.483 144.4C412.642 144.001 412.782 143.603 412.901 143.205C413.574 145.038 413.923 146.975 413.93 148.928Z" fill="#3F3D56"/>
<path d="M60.8644 141.781C49.8144 141.781 38.0703 139.404 38.0703 134.998C38.0703 130.592 49.8144 128.214 60.8644 128.214C71.9144 128.214 83.6585 130.592 83.6585 134.998C83.6585 139.404 71.9144 141.781 60.8644 141.781ZM60.8644 129.542C48.2141 129.542 39.3983 132.417 39.3983 134.998C39.3983 137.578 48.2141 140.453 60.8644 140.453C73.5148 140.453 82.3306 137.578 82.3306 134.998C82.3306 132.417 73.5148 129.542 60.8644 129.542Z" fill="#3F3D56"/>
<path d="M108.005 172.987C96.9553 172.987 85.2112 170.61 85.2112 166.204C85.2112 161.797 96.9553 159.42 108.005 159.42C119.055 159.42 130.799 161.797 130.799 166.204C130.799 170.61 119.055 172.987 108.005 172.987ZM108.005 160.748C95.355 160.748 86.5392 163.623 86.5392 166.204C86.5392 168.784 95.355 171.659 108.005 171.659C120.656 171.659 129.471 168.784 129.471 166.204C129.471 163.623 120.656 160.748 108.005 160.748Z" fill="#3F3D56"/>
<path d="M353.005 141.781C341.955 141.781 330.211 139.404 330.211 134.998C330.211 130.592 341.955 128.214 353.005 128.214C364.055 128.214 375.799 130.592 375.799 134.998C375.799 139.404 364.055 141.781 353.005 141.781ZM353.005 129.542C340.355 129.542 331.539 132.417 331.539 134.998C331.539 137.578 340.355 140.453 353.005 140.453C365.655 140.453 374.471 137.578 374.471 134.998C374.471 132.417 365.655 129.542 353.005 129.542Z" fill="#3F3D56"/>
<path d="M305.864 172.987C294.814 172.987 283.07 170.61 283.07 166.204C283.07 161.797 294.814 159.42 305.864 159.42C316.914 159.42 328.658 161.797 328.658 166.204C328.658 170.61 316.914 172.987 305.864 172.987ZM305.864 160.748C293.214 160.748 284.398 163.623 284.398 166.204C284.398 168.784 293.214 171.659 305.864 171.659C318.515 171.659 327.33 168.784 327.33 166.204C327.33 163.623 318.515 160.748 305.864 160.748Z" fill="#3F3D56"/>
<path d="M206.935 187.594C195.885 187.594 184.141 185.217 184.141 180.811C184.141 176.405 195.885 174.027 206.935 174.027C217.985 174.027 229.729 176.405 229.729 180.811C229.729 185.217 217.985 187.594 206.935 187.594ZM206.935 175.355C194.284 175.355 185.469 178.23 185.469 180.811C185.469 183.391 194.284 186.266 206.935 186.266C219.585 186.266 228.401 183.391 228.401 180.811C228.401 178.23 219.585 175.355 206.935 175.355Z" fill="#3F3D56"/>
<path d="M223.739 327.142C239.144 327.142 251.633 314.654 251.633 299.248C251.633 283.842 239.144 271.354 223.739 271.354C208.333 271.354 195.844 283.842 195.844 299.248C195.844 314.654 208.333 327.142 223.739 327.142Z" fill="#2F2E41"/>
<path d="M213.131 317.575L199.555 324.373L203.35 331.95L216.926 325.152L213.131 317.575Z" fill="#2F2E41"/>
<path d="M205.14 331.181C205.945 329.96 203.958 327.23 200.702 325.083C197.446 322.936 194.153 322.186 193.348 323.407C192.543 324.628 194.53 327.358 197.786 329.505C201.042 331.652 204.335 332.403 205.14 331.181Z" fill="#2F2E41"/>
<path d="M234.346 317.575L230.551 325.152L244.127 331.951L247.922 324.373L234.346 317.575Z" fill="#2F2E41"/>
<path d="M249.691 329.505C252.947 327.358 254.934 324.628 254.129 323.407C253.324 322.186 250.031 322.936 246.775 325.083C243.519 327.23 241.532 329.96 242.337 331.181C243.142 332.402 246.435 331.652 249.691 329.505Z" fill="#2F2E41"/>
<path d="M221.786 301.958C227.051 301.958 231.319 297.69 231.319 292.425C231.319 287.16 227.051 282.891 221.786 282.891C216.52 282.891 212.252 287.16 212.252 292.425C212.252 297.69 216.52 301.958 221.786 301.958Z" fill="white"/>
<path d="M224.105 290.597C225.341 289.361 225.333 287.35 224.089 286.106C222.844 284.861 220.834 284.854 219.598 286.09C218.362 287.326 218.369 289.337 219.614 290.581C220.858 291.826 222.869 291.833 224.105 290.597Z" fill="#3F3D56"/>
<path d="M245.743 268.902C246.163 258.575 237.263 249.828 225.864 249.365C214.465 248.902 204.885 256.898 204.465 267.225C204.046 277.552 211.969 279.898 223.368 280.361C234.767 280.824 245.324 279.229 245.743 268.902Z" fill="#1A1825"/>
<path d="M261.822 313.854C263.657 312.279 261.077 306.264 256.06 300.42C251.042 294.575 245.487 291.114 243.653 292.689C241.818 294.264 244.398 300.279 249.415 306.124C254.433 311.968 259.988 315.429 261.822 313.854Z" fill="#2F2E41"/>
<path d="M198.14 306.124C203.157 300.279 205.737 294.264 203.902 292.689C202.068 291.114 196.513 294.575 191.495 300.42C186.478 306.264 183.898 312.279 185.733 313.854C187.568 315.429 193.122 311.968 198.14 306.124Z" fill="#2F2E41"/>
<path d="M231.4 310.241C231.702 311.899 231.332 313.609 230.373 314.996C229.414 316.382 227.944 317.33 226.285 317.632C224.627 317.934 222.916 317.565 221.53 316.605C220.144 315.646 219.196 314.176 218.894 312.517L218.892 312.505C218.266 309.051 220.937 307.829 224.391 307.204C227.845 306.578 230.774 306.787 231.4 310.241Z" fill="white"/>
<path d="M176.612 328.92C176.26 328.92 175.922 328.78 175.673 328.531C175.424 328.282 175.284 327.944 175.284 327.592V249.245C175.284 248.893 175.424 248.555 175.673 248.306C175.922 248.057 176.26 247.917 176.612 247.917C176.965 247.917 177.302 248.057 177.551 248.306C177.8 248.555 177.94 248.893 177.94 249.245V327.592C177.94 327.944 177.8 328.282 177.551 328.531C177.302 328.78 176.965 328.92 176.612 328.92Z" fill="#CCCCCC"/>
<path d="M156.694 399.299C156.342 399.299 156.004 399.159 155.755 398.91C155.506 398.661 155.366 398.324 155.366 397.971V340.871C155.366 340.519 155.506 340.181 155.755 339.932C156.004 339.683 156.341 339.543 156.694 339.543C157.046 339.543 157.384 339.683 157.633 339.932C157.882 340.181 158.022 340.519 158.022 340.871V397.971C158.022 398.324 157.882 398.661 157.633 398.91C157.384 399.159 157.046 399.299 156.694 399.299Z" fill="#CCCCCC"/>
<path d="M207.818 352.158C207.466 352.158 207.128 352.018 206.879 351.769C206.63 351.52 206.49 351.183 206.49 350.831V272.484C206.49 272.131 206.63 271.794 206.879 271.545C207.128 271.296 207.466 271.156 207.818 271.156C208.17 271.156 208.508 271.296 208.757 271.545C209.006 271.794 209.146 272.131 209.146 272.484V350.831C209.146 351.183 209.006 351.52 208.757 351.769C208.508 352.018 208.17 352.158 207.818 352.158Z" fill="#CCCCCC"/>
<path d="M188.564 408.595C188.211 408.595 187.874 408.455 187.625 408.206C187.376 407.957 187.236 407.619 187.236 407.267V375.397C187.236 375.045 187.376 374.707 187.625 374.458C187.874 374.209 188.211 374.069 188.564 374.069C188.916 374.069 189.254 374.209 189.503 374.458C189.752 374.707 189.891 375.045 189.891 375.397V407.267C189.891 407.619 189.752 407.957 189.503 408.206C189.254 408.455 188.916 408.595 188.564 408.595Z" fill="#CCCCCC"/>
<path d="M215.786 245.261C215.434 245.261 215.096 245.122 214.847 244.872C214.598 244.623 214.458 244.286 214.458 243.934V212.064C214.458 211.711 214.598 211.374 214.847 211.125C215.096 210.876 215.434 210.736 215.786 210.736C216.138 210.736 216.476 210.876 216.725 211.125C216.974 211.374 217.114 211.711 217.114 212.064V243.934C217.114 244.286 216.974 244.623 216.725 244.872C216.476 245.122 216.138 245.261 215.786 245.261Z" fill="#CCCCCC"/>
<path d="M149.39 259.205C149.038 259.205 148.7 259.065 148.451 258.816C148.202 258.567 148.062 258.229 148.062 257.877V226.007C148.062 225.655 148.202 225.317 148.451 225.068C148.7 224.819 149.038 224.679 149.39 224.679C149.742 224.679 150.08 224.819 150.329 225.068C150.578 225.317 150.718 225.655 150.718 226.007V257.877C150.718 258.229 150.578 258.567 150.329 258.816C150.08 259.065 149.742 259.205 149.39 259.205Z" fill="#CCCCCC"/>
<path d="M264.919 262.524C264.566 262.524 264.229 262.384 263.98 262.135C263.731 261.886 263.591 261.549 263.591 261.196V229.326C263.591 228.974 263.731 228.637 263.98 228.388C264.229 228.138 264.566 227.999 264.919 227.999C265.271 227.999 265.608 228.138 265.858 228.388C266.107 228.637 266.246 228.974 266.246 229.326V261.196C266.246 261.549 266.107 261.886 265.858 262.135C265.608 262.384 265.271 262.524 264.919 262.524Z" fill="#CCCCCC"/>
<path d="M262.263 362.118C261.911 362.118 261.573 361.978 261.324 361.729C261.075 361.48 260.935 361.142 260.935 360.79V322.28C260.935 321.928 261.075 321.59 261.324 321.341C261.573 321.092 261.911 320.952 262.263 320.952C262.615 320.952 262.953 321.092 263.202 321.341C263.451 321.59 263.591 321.928 263.591 322.28V360.79C263.591 361.142 263.451 361.48 263.202 361.729C262.953 361.978 262.615 362.118 262.263 362.118Z" fill="#CCCCCC"/>
<path d="M235.704 395.98C235.352 395.98 235.015 395.84 234.766 395.591C234.516 395.342 234.377 395.004 234.377 394.652V337.551C234.377 337.199 234.516 336.861 234.765 336.612C235.015 336.363 235.352 336.223 235.704 336.223C236.057 336.223 236.394 336.363 236.643 336.612C236.892 336.861 237.032 337.199 237.032 337.551V394.652C237.032 395.004 236.892 395.342 236.643 395.591C236.394 395.84 236.057 395.98 235.704 395.98Z" fill="#CCCCCC"/>
<path d="M241.016 298.378C240.664 298.378 240.326 298.238 240.077 297.989C239.828 297.74 239.688 297.402 239.688 297.05V218.703C239.688 218.351 239.828 218.013 240.077 217.764C240.326 217.515 240.664 217.375 241.016 217.375C241.368 217.375 241.706 217.515 241.955 217.764C242.204 218.013 242.344 218.351 242.344 218.703V297.05C242.344 297.402 242.204 297.74 241.955 297.989C241.706 298.238 241.368 298.378 241.016 298.378Z" fill="#CCCCCC"/>
<path d="M403.814 465.095C405.714 463.504 403.146 457.306 398.077 451.252C393.008 445.197 387.357 441.579 385.457 443.171C383.556 444.762 386.125 450.96 391.194 457.014C396.263 463.069 401.913 466.687 403.814 465.095Z" fill="#2F2E41"/>
<path d="M391.349 458.21C396.343 443.228 388.246 427.035 373.264 422.041C358.282 417.047 342.088 425.143 337.094 440.126C332.1 455.108 340.197 471.301 355.179 476.295C370.161 481.289 386.355 473.193 391.349 458.21Z" fill="#2F2E41"/>
<path d="M376.324 471.609H367.637V487.174H376.324V471.609Z" fill="#2F2E41"/>
<path d="M358.95 471.609H350.263V487.174H358.95V471.609Z" fill="#2F2E41"/>
<path d="M369.085 490.069C373.083 490.069 376.324 488.854 376.324 487.355C376.324 485.855 373.083 484.64 369.085 484.64C365.087 484.64 361.846 485.855 361.846 487.355C361.846 488.854 365.087 490.069 369.085 490.069Z" fill="#2F2E41"/>
<path d="M351.711 489.707C355.709 489.707 358.95 488.492 358.95 486.993C358.95 485.493 355.709 484.278 351.711 484.278C347.713 484.278 344.472 485.493 344.472 486.993C344.472 488.492 347.713 489.707 351.711 489.707Z" fill="#2F2E41"/>
<path d="M355.243 413.223C357.796 402.941 369.067 396.89 380.416 399.708C391.766 402.526 398.897 413.147 396.344 423.429C393.791 433.712 385.32 433.745 373.97 430.927C362.62 428.109 352.689 423.506 355.243 413.223Z" fill="#CCCCCC"/>
<path d="M344.932 442.027C345.994 439.787 341.072 435.228 333.937 431.844C326.803 428.461 320.158 427.533 319.096 429.773C318.034 432.013 322.956 436.571 330.091 439.955C337.225 443.339 343.87 444.266 344.932 442.027Z" fill="#2F2E41"/>
<path d="M359.946 452.668C365.212 452.668 369.48 448.399 369.48 443.134C369.48 437.869 365.212 433.601 359.946 433.601C354.681 433.601 350.413 437.869 350.413 443.134C350.413 448.399 354.681 452.668 359.946 452.668Z" fill="white"/>
<path d="M356.028 442.895C357.783 442.895 359.206 441.472 359.206 439.717C359.206 437.962 357.783 436.539 356.028 436.539C354.273 436.539 352.85 437.962 352.85 439.717C352.85 441.472 354.273 442.895 356.028 442.895Z" fill="#3F3D56"/>
<path d="M359.864 467.023C362.064 467.023 363.848 465.239 363.848 463.039C363.848 460.839 362.064 459.055 359.864 459.055C357.664 459.055 355.881 460.839 355.881 463.039C355.881 465.239 357.664 467.023 359.864 467.023Z" fill="white"/>
<path d="M445.868 490.261H289.174C288.998 490.261 288.829 490.191 288.704 490.067C288.58 489.942 288.51 489.773 288.51 489.597C288.51 489.421 288.58 489.252 288.704 489.128C288.829 489.003 288.998 488.933 289.174 488.933H445.868C446.044 488.933 446.212 489.003 446.337 489.128C446.462 489.252 446.531 489.421 446.531 489.597C446.531 489.773 446.462 489.942 446.337 490.067C446.212 490.191 446.044 490.261 445.868 490.261Z" fill="#3F3D56"/>
</g>
<path d="M740.476 65.8032C738.71 63.3314 735.275 62.7589 732.803 64.5245L692.523 93.2957C690.052 95.0613 689.479 98.4963 691.245 100.968C693.01 103.44 696.445 104.012 698.917 102.247L734.721 76.6723L760.296 112.477C762.061 114.948 765.496 115.521 767.968 113.755C770.44 111.99 771.012 108.555 769.247 106.083L740.476 65.8032ZM422 313C427.385 314.116 427.385 314.118 427.385 314.119C427.385 314.118 427.385 314.119 427.385 314.117C427.386 314.115 427.387 314.111 427.388 314.104C427.391 314.089 427.396 314.066 427.403 314.032C427.418 313.965 427.44 313.86 427.472 313.718C427.534 313.434 427.632 313.004 427.765 312.439C428.031 311.309 428.441 309.642 429.007 307.538C430.139 303.327 431.893 297.379 434.365 290.481C439.33 276.629 447.102 259.204 458.383 244.323C469.666 229.439 484.124 217.524 502.42 213.762C520.627 210.019 543.765 214.12 572.949 233.576L579.051 224.424C548.235 203.88 522.123 198.481 500.205 202.988C478.376 207.476 461.834 221.561 449.617 237.677C437.398 253.796 429.171 272.371 424.01 286.769C421.42 293.996 419.58 300.235 418.384 304.681C417.786 306.905 417.348 308.684 417.058 309.917C416.912 310.533 416.804 311.014 416.731 311.346C416.694 311.512 416.666 311.641 416.647 311.731C416.637 311.776 416.63 311.811 416.624 311.837C416.622 311.849 416.619 311.86 416.618 311.868C416.617 311.871 416.616 311.875 416.616 311.877C416.615 311.881 416.615 311.883 422 313ZM572.949 233.576C588.529 243.963 603.151 249.382 616.852 250.573C630.6 251.769 643.081 248.675 654.259 242.578C676.38 230.512 693.262 206.774 705.919 181.46C718.655 155.989 727.519 128.09 733.192 106.657C736.034 95.92 738.088 86.7588 739.432 80.2727C740.105 77.0288 740.601 74.4517 740.929 72.6784C741.094 71.7916 741.216 71.1057 741.299 70.6377C741.34 70.4037 741.371 70.2241 741.392 70.1011C741.402 70.0397 741.41 69.9923 741.416 69.9594C741.419 69.943 741.421 69.9301 741.422 69.9209C741.423 69.9163 741.424 69.9121 741.424 69.9098C741.425 69.9065 741.425 69.9042 736 69C730.575 68.0958 730.575 68.0953 730.575 68.0957C730.575 68.097 730.574 68.0983 730.574 68.101C730.573 68.1064 730.572 68.1153 730.569 68.1279C730.565 68.1531 730.559 68.1926 730.549 68.2461C730.531 68.3533 730.503 68.5167 730.465 68.7344C730.388 69.1697 730.272 69.8216 730.114 70.6732C729.798 72.3764 729.317 74.8774 728.661 78.0397C727.35 84.3661 725.341 93.3299 722.558 103.843C716.981 124.91 708.345 152.011 696.081 176.54C683.738 201.226 668.12 222.488 648.991 232.922C639.544 238.075 629.212 240.606 617.805 239.614C606.349 238.618 593.471 234.037 579.051 224.424L572.949 233.576Z" fill="black"/>
<defs>
<clipPath id="clip0_0_1">
<rect width="446.531" height="490.261" fill="white"/>
</clipPath>
</defs>
</svg>
