<svg width="153" height="39" viewBox="0 0 153 39" fill="none" xmlns="http://www.w3.org/2000/svg">
<g clip-path="url(#clip0_14_3)">
<path d="M0.878784 28.6818L0.878787 9.89393L10.2727 15.1128V23.5151L17.7879 27.7424L25.303 23.5151V15.1128L34.697 9.89393V28.6818L17.7879 38.0757L0.878784 28.6818Z" fill="#192657"/>
<path fill-rule="evenodd" clip-rule="evenodd" d="M5.57576 12.5034L0.878784 9.89394L17.7879 0.5L34.697 9.89394L30 12.5034V26.3333L17.7879 33.3788L5.57575 26.3333L5.57576 12.5034ZM29.4912 12.7861L25.303 15.1128V15.0606L17.7879 10.8333L10.2727 15.0606V15.1128L6.08459 12.7861V26.0443L17.7879 32.7962L29.4912 26.0443V12.7861Z" fill="url(#paint0_linear_14_3)"/>
<path d="M43.7001 27.197V11.4152H46.6761V24.4915H53.8907V27.197H43.7001Z" fill="#192657"/>
<path d="M60.3159 27.5126C59.2037 27.5126 58.2042 27.2872 57.3174 26.8362C56.4306 26.3853 55.7317 25.7315 55.2207 24.8748C54.7096 24.0181 54.4541 22.9885 54.4541 21.7861V21.4253C54.4541 20.2229 54.7096 19.1933 55.2207 18.3366C55.7317 17.4799 56.4306 16.8261 57.3174 16.3752C58.2042 15.9242 59.2037 15.6988 60.3159 15.6988C61.4282 15.6988 62.4277 15.9242 63.3145 16.3752C64.2013 16.8261 64.9002 17.4799 65.4112 18.3366C65.9222 19.1933 66.1778 20.2229 66.1778 21.4253V21.7861C66.1778 22.9885 65.9222 24.0181 65.4112 24.8748C64.9002 25.7315 64.2013 26.3853 63.3145 26.8362C62.4277 27.2872 61.4282 27.5126 60.3159 27.5126ZM60.3159 24.9875C61.1877 24.9875 61.9092 24.7095 62.4803 24.1533C63.0515 23.5822 63.337 22.7705 63.337 21.7184V21.493C63.337 20.4409 63.0515 19.6367 62.4803 19.0806C61.9242 18.5095 61.2027 18.2239 60.3159 18.2239C59.4442 18.2239 58.7227 18.5095 58.1516 19.0806C57.5804 19.6367 57.2949 20.4409 57.2949 21.493V21.7184C57.2949 22.7705 57.5804 23.5822 58.1516 24.1533C58.7227 24.7095 59.4442 24.9875 60.3159 24.9875Z" fill="#192657"/>
<path d="M67.2443 21.6508V21.2901C67.2443 20.1177 67.4772 19.1182 67.9432 18.2915C68.4091 17.4498 69.0254 16.811 69.7919 16.3752C70.5735 15.9242 71.4227 15.6988 72.3395 15.6988C73.3616 15.6988 74.1357 15.8792 74.6617 16.2399C75.1878 16.6006 75.5711 16.9764 75.8115 17.3672H76.2174V16.0144H79.013V29.181C79.013 29.9475 78.7875 30.5562 78.3366 31.0072C77.8857 31.4731 77.2845 31.7061 76.533 31.7061H69.0479V29.2261H75.541C75.9618 29.2261 76.1723 29.0006 76.1723 28.5497V25.6413H75.7664C75.6161 25.8818 75.4057 26.1298 75.1352 26.3853C74.8646 26.6258 74.5039 26.8287 74.053 26.9941C73.6021 27.1594 73.0309 27.2421 72.3395 27.2421C71.4227 27.2421 70.5735 27.0241 69.7919 26.5882C69.0254 26.1373 68.4091 25.4985 67.9432 24.6719C67.4772 23.8302 67.2443 22.8232 67.2443 21.6508ZM73.1512 24.7621C74.0229 24.7621 74.7519 24.484 75.3381 23.9279C75.9243 23.3718 76.2174 22.5902 76.2174 21.5832V21.3577C76.2174 20.3356 75.9243 19.5541 75.3381 19.013C74.7669 18.4569 74.038 18.1788 73.1512 18.1788C72.2794 18.1788 71.5504 18.4569 70.9643 19.013C70.3781 19.5541 70.085 20.3356 70.085 21.3577V21.5832C70.085 22.5902 70.3781 23.3718 70.9643 23.9279C71.5504 24.484 72.2794 24.7621 73.1512 24.7621Z" fill="#192657"/>
<path d="M86.4687 27.5126C85.3564 27.5126 84.3569 27.2872 83.4701 26.8362C82.5833 26.3853 81.8844 25.7315 81.3734 24.8748C80.8624 24.0181 80.6069 22.9885 80.6069 21.7861V21.4253C80.6069 20.2229 80.8624 19.1933 81.3734 18.3366C81.8844 17.4799 82.5833 16.8261 83.4701 16.3752C84.3569 15.9242 85.3564 15.6988 86.4687 15.6988C87.5809 15.6988 88.5804 15.9242 89.4672 16.3752C90.354 16.8261 91.0529 17.4799 91.5639 18.3366C92.075 19.1933 92.3305 20.2229 92.3305 21.4253V21.7861C92.3305 22.9885 92.075 24.0181 91.5639 24.8748C91.0529 25.7315 90.354 26.3853 89.4672 26.8362C88.5804 27.2872 87.5809 27.5126 86.4687 27.5126ZM86.4687 24.9875C87.3404 24.9875 88.0619 24.7095 88.633 24.1533C89.2042 23.5822 89.4898 22.7705 89.4898 21.7184V21.493C89.4898 20.4409 89.2042 19.6367 88.633 19.0806C88.0769 18.5095 87.3555 18.2239 86.4687 18.2239C85.5969 18.2239 84.8755 18.5095 84.3043 19.0806C83.7332 19.6367 83.4476 20.4409 83.4476 21.493V21.7184C83.4476 22.7705 83.7332 23.5822 84.3043 24.1533C84.8755 24.7095 85.5969 24.9875 86.4687 24.9875Z" fill="#192657"/>
<path d="M93.9381 27.197V16.0144H96.7788V27.197H93.9381ZM95.3584 14.7068C94.8474 14.7068 94.4115 14.5415 94.0508 14.2108C93.7051 13.8801 93.5323 13.4442 93.5323 12.9032C93.5323 12.3621 93.7051 11.9262 94.0508 11.5955C94.4115 11.2649 94.8474 11.0995 95.3584 11.0995C95.8845 11.0995 96.3204 11.2649 96.6661 11.5955C97.0118 11.9262 97.1846 12.3621 97.1846 12.9032C97.1846 13.4442 97.0118 13.8801 96.6661 14.2108C96.3204 14.5415 95.8845 14.7068 95.3584 14.7068Z" fill="#192657"/>
<path d="M98.9122 31.7061V16.0144H101.708V17.3672H102.114C102.369 16.9313 102.767 16.548 103.309 16.2173C103.85 15.8716 104.624 15.6988 105.631 15.6988C106.533 15.6988 107.367 15.9242 108.133 16.3752C108.9 16.811 109.516 17.4573 109.982 18.3141C110.448 19.1708 110.681 20.2079 110.681 21.4253V21.7861C110.681 23.0035 110.448 24.0406 109.982 24.8973C109.516 25.7541 108.9 26.4079 108.133 26.8588C107.367 27.2947 106.533 27.5126 105.631 27.5126C104.954 27.5126 104.383 27.4299 103.917 27.2646C103.466 27.1143 103.098 26.9189 102.813 26.6784C102.542 26.4229 102.324 26.1674 102.159 25.9119H101.753V31.7061H98.9122ZM104.774 25.0326C105.661 25.0326 106.39 24.7545 106.961 24.1984C107.547 23.6273 107.84 22.8006 107.84 21.7184V21.493C107.84 20.4108 107.547 19.5916 106.961 19.0355C106.375 18.4644 105.646 18.1788 104.774 18.1788C103.902 18.1788 103.173 18.4644 102.587 19.0355C102.001 19.5916 101.708 20.4108 101.708 21.493V21.7184C101.708 22.8006 102.001 23.6273 102.587 24.1984C103.173 24.7545 103.902 25.0326 104.774 25.0326Z" fill="#192657"/>
<path d="M116.919 27.5126C115.461 27.5126 114.266 27.197 113.334 26.5657C112.403 25.9344 111.839 25.0326 111.643 23.8602L114.259 23.1839C114.364 23.7099 114.537 24.1233 114.777 24.4239C115.033 24.7245 115.341 24.9424 115.702 25.0777C116.077 25.1979 116.483 25.2581 116.919 25.2581C117.58 25.2581 118.069 25.1453 118.385 24.9199C118.7 24.6794 118.858 24.3863 118.858 24.0406C118.858 23.6949 118.708 23.4319 118.407 23.2515C118.107 23.0561 117.626 22.8983 116.964 22.7781L116.333 22.6653C115.551 22.515 114.837 22.3121 114.191 22.0566C113.545 21.7861 113.026 21.4178 112.635 20.9519C112.245 20.4859 112.049 19.8847 112.049 19.1482C112.049 18.036 112.455 17.1868 113.267 16.6006C114.078 15.9994 115.146 15.6988 116.468 15.6988C117.716 15.6988 118.753 15.9769 119.579 16.533C120.406 17.0891 120.947 17.8181 121.203 18.7199L118.565 19.5315C118.445 18.9604 118.197 18.5545 117.821 18.3141C117.46 18.0736 117.009 17.9533 116.468 17.9533C115.927 17.9533 115.514 18.051 115.228 18.2464C114.943 18.4268 114.8 18.6823 114.8 19.013C114.8 19.3737 114.95 19.6442 115.251 19.8246C115.551 19.9899 115.957 20.1177 116.468 20.2079L117.099 20.3206C117.941 20.4709 118.7 20.6738 119.377 20.9293C120.068 21.1698 120.609 21.523 121 21.989C121.406 22.4399 121.609 23.0561 121.609 23.8377C121.609 25.0101 121.18 25.9194 120.323 26.5657C119.482 27.197 118.347 27.5126 116.919 27.5126Z" fill="#192657"/>
<path d="M127.344 27.3773C126.473 27.3773 125.706 27.1819 125.045 26.7912C124.399 26.3853 123.895 25.8292 123.534 25.1228C123.174 24.4164 122.993 23.6047 122.993 22.6879V16.0144H125.834V22.4624C125.834 23.3041 126.037 23.9354 126.443 24.3562C126.863 24.7771 127.457 24.9875 128.224 24.9875C129.095 24.9875 129.772 24.7019 130.253 24.1308C130.734 23.5446 130.974 22.733 130.974 21.6959V16.0144H133.815V27.197H131.019V25.7315H130.614C130.433 26.1073 130.095 26.4755 129.599 26.8362C129.103 27.197 128.351 27.3773 127.344 27.3773Z" fill="#192657"/>
<path d="M135.962 27.197V16.0144H138.757V17.2319H139.163C139.358 16.8561 139.682 16.533 140.132 16.2624C140.583 15.9769 141.177 15.8341 141.914 15.8341C142.71 15.8341 143.349 15.9919 143.83 16.3075C144.311 16.6081 144.679 17.0064 144.935 17.5024H145.34C145.596 17.0215 145.957 16.6232 146.423 16.3075C146.889 15.9919 147.55 15.8341 148.407 15.8341C149.098 15.8341 149.722 15.9844 150.278 16.285C150.849 16.5705 151.3 17.0139 151.631 17.6152C151.976 18.2013 152.149 18.9453 152.149 19.8472V27.197H149.308V20.0501C149.308 19.4338 149.151 18.9754 148.835 18.6748C148.519 18.3592 148.076 18.2013 147.505 18.2013C146.859 18.2013 146.355 18.4118 145.994 18.8326C145.649 19.2384 145.476 19.8246 145.476 20.5912V27.197H142.635V20.0501C142.635 19.4338 142.477 18.9754 142.162 18.6748C141.846 18.3592 141.403 18.2013 140.831 18.2013C140.185 18.2013 139.682 18.4118 139.321 18.8326C138.975 19.2384 138.802 19.8246 138.802 20.5912V27.197H135.962Z" fill="#192657"/>
</g>
<defs>
<linearGradient id="paint0_linear_14_3" x1="5.57575" y1="7.80638" x2="30.9394" y2="7.80639" gradientUnits="userSpaceOnUse">
<stop stop-color="#64C2DB"/>
<stop offset="0.307292" stop-color="#7476ED"/>
<stop offset="0.604167" stop-color="#C994DF"/>
<stop offset="1" stop-color="#E56F8C"/>
</linearGradient>
<clipPath id="clip0_14_3">
<rect width="153" height="38" fill="white" transform="translate(0 0.5)"/>
</clipPath>
</defs>
</svg>
